<svg data-v-fde0c5aa="" xmlns="http://www.w3.org/2000/svg" viewBox="0 0 300 300" class="font"><!----><defs data-v-fde0c5aa=""><!----></defs><rect data-v-fde0c5aa="" fill="#EFF0F1" x="0" y="0" width="300px" height="300px" class="logo-background-square"></rect><defs data-v-fde0c5aa=""><linearGradient data-v-fde0c5aa="" gradientTransform="rotate(25)" id="8954e9f0-fbbf-4c56-b3a8-503ce98dfd10" x1="0%" y1="0%" x2="100%" y2="0%"><stop data-v-fde0c5aa="" offset="0%" stop-color="#574851" stop-opacity="1"></stop><stop data-v-fde0c5aa="" offset="100%" stop-color="#95A8B1" stop-opacity="1"></stop></linearGradient></defs><g data-v-fde0c5aa="" id="065b2a72-b30a-4baa-9f2d-4b3f3c055773" fill="url(#8954e9f0-fbbf-4c56-b3a8-503ce98dfd10)" transform="matrix(1.3202905654907227,0,0,1.3202905654907227,37.59707113681693,137.1535735906727)"><path d="M5.21 12.88L1.82 12.88L1.82 3.08L5.04 3.08L5.04 3.08Q6.20 3.08 7.17 3.45L7.17 3.45L7.17 3.45Q8.13 3.82 8.83 4.47L8.83 4.47L8.83 4.47Q9.52 5.12 9.90 6.02L9.90 6.02L9.90 6.02Q10.29 6.92 10.29 7.95L10.29 7.95L10.29 7.95Q10.29 9.03 9.89 9.93L9.89 9.93L9.89 9.93Q9.49 10.84 8.80 11.49L8.80 11.49L8.80 11.49Q8.11 12.15 7.18 12.52L7.18 12.52L7.18 12.52Q6.26 12.88 5.21 12.88L5.21 12.88ZM3.09 3.70L3.09 12.26L4.63 12.26L4.63 12.26Q5.78 12.26 6.59 11.88L6.59 11.88L6.59 11.88Q7.39 11.49 7.91 10.88L7.91 10.88L7.91 10.88Q8.43 10.26 8.67 9.50L8.67 9.50L8.67 9.50Q8.90 8.74 8.90 7.98L8.90 7.98L8.90 7.98Q8.90 7.14 8.62 6.36L8.62 6.36L8.62 6.36Q8.34 5.59 7.81 4.99L7.81 4.99L7.81 4.99Q7.27 4.40 6.47 4.05L6.47 4.05L6.47 4.05Q5.67 3.70 4.63 3.70L4.63 3.70L3.09 3.70ZM12.73 9.69L18.05 9.69L18.05 9.39L18.05 9.39Q18.05 8.46 17.78 7.77L17.78 7.77L17.78 7.77Q17.51 7.08 17.06 6.64L17.06 6.64L17.06 6.64Q16.60 6.19 16.00 5.96L16.00 5.96L16.00 5.96Q15.40 5.74 14.73 5.74L14.73 5.74L14.73 5.74Q14.01 5.74 13.41 5.99L13.41 5.99L13.41 5.99Q12.81 6.23 12.36 6.70L12.36 6.70L12.36 6.70Q11.91 7.17 11.66 7.83L11.66 7.83L11.66 7.83Q11.41 8.50 11.41 9.34L11.41 9.34L11.41 9.34Q11.41 10.04 11.63 10.70L11.63 10.70L11.63 10.70Q11.84 11.37 12.29 11.89L12.29 11.89L12.29 11.89Q12.73 12.42 13.41 12.73L13.41 12.73L13.41 12.73Q14.08 13.05 15.01 13.05L15.01 13.05L15.01 13.05Q15.90 13.05 16.66 12.73L16.66 12.73L16.66 12.73Q17.42 12.42 17.98 11.83L17.98 11.83L17.53 11.38L17.53 11.38Q17.23 11.63 16.98 11.84L16.98 11.84L16.98 11.84Q16.72 12.05 16.45 12.19L16.45 12.19L16.45 12.19Q16.18 12.33 15.90 12.41L15.90 12.41L15.90 12.41Q15.61 12.49 15.26 12.49L15.26 12.49L15.26 12.49Q14.87 12.49 14.43 12.37L14.43 12.37L14.43 12.37Q13.99 12.25 13.61 11.94L13.61 11.94L13.61 11.94Q13.23 11.63 12.98 11.09L12.98 11.09L12.98 11.09Q12.73 10.54 12.73 9.69L12.73 9.69ZM16.83 9.13L12.73 9.13L12.73 9.13Q12.73 8.57 12.85 8.04L12.85 8.04L12.85 8.04Q12.96 7.52 13.21 7.11L13.21 7.11L13.21 7.11Q13.45 6.71 13.83 6.46L13.83 6.46L13.83 6.46Q14.21 6.22 14.73 6.22L14.73 6.22L14.73 6.22Q15.72 6.22 16.28 6.99L16.28 6.99L16.28 6.99Q16.83 7.77 16.83 9.13L16.83 9.13ZM23.53 7.48L24.33 7.48L24.33 7.48Q24.33 7.10 24.14 6.78L24.14 6.78L24.14 6.78Q23.94 6.45 23.60 6.22L23.60 6.22L23.60 6.22Q23.25 5.99 22.80 5.86L22.80 5.86L22.80 5.86Q22.34 5.73 21.83 5.73L21.83 5.73L21.83 5.73Q21.34 5.73 20.91 5.85L20.91 5.85L20.91 5.85Q20.48 5.98 20.17 6.23L20.17 6.23L20.17 6.23Q19.85 6.48 19.67 6.85L19.67 6.85L19.67 6.85Q19.49 7.22 19.49 7.71L19.49 7.71L19.49 7.71Q19.49 8.39 19.80 8.78L19.80 8.78L19.80 8.78Q20.10 9.17 20.57 9.41L20.57 9.41L20.57 9.41Q21.03 9.65 21.57 9.79L21.57 9.79L21.57 9.79Q22.11 9.94 22.57 10.12L22.57 10.12L22.57 10.12Q23.03 10.29 23.34 10.56L23.34 10.56L23.34 10.56Q23.65 10.82 23.65 11.28L23.65 11.28L23.65 11.28Q23.65 11.48 23.58 11.69L23.58 11.69L23.58 11.69Q23.52 11.90 23.35 12.08L23.35 12.08L23.35 12.08Q23.18 12.25 22.89 12.37L22.89 12.37L22.89 12.37Q22.60 12.49 22.15 12.49L22.15 12.49L22.15 12.49Q21.59 12.49 21.20 12.31L21.20 12.31L21.20 12.31Q20.82 12.14 20.57 11.89L20.57 11.89L20.57 11.89Q20.33 11.65 20.22 11.40L20.22 11.40L20.22 11.40Q20.12 11.14 20.12 10.98L20.12 10.98L19.21 10.98L19.21 10.98Q19.21 11.37 19.39 11.74L19.39 11.74L19.39 11.74Q19.57 12.11 19.94 12.40L19.94 12.40L19.94 12.40Q20.31 12.70 20.85 12.87L20.85 12.87L20.85 12.87Q21.39 13.05 22.11 13.05L22.11 13.05L22.11 13.05Q23.39 13.05 24.05 12.48L24.05 12.48L24.05 12.48Q24.70 11.91 24.70 10.99L24.70 10.99L24.70 10.99Q24.70 10.32 24.38 9.91L24.38 9.91L24.38 9.91Q24.07 9.51 23.59 9.26L23.59 9.26L23.59 9.26Q23.11 9.02 22.56 8.86L22.56 8.86L22.56 8.86Q22.01 8.71 21.53 8.54L21.53 8.54L21.53 8.54Q21.06 8.37 20.74 8.13L20.74 8.13L20.74 8.13Q20.43 7.90 20.43 7.46L20.43 7.46L20.43 7.46Q20.43 7.28 20.50 7.08L20.50 7.08L20.50 7.08Q20.57 6.87 20.73 6.70L20.73 6.70L20.73 6.70Q20.90 6.52 21.18 6.41L21.18 6.41L21.18 6.41Q21.46 6.29 21.88 6.29L21.88 6.29L21.88 6.29Q22.30 6.29 22.61 6.41L22.61 6.41L22.61 6.41Q22.92 6.52 23.13 6.70L23.13 6.70L23.13 6.70Q23.34 6.87 23.44 7.08L23.44 7.08L23.44 7.08Q23.53 7.29 23.53 7.48L23.53 7.48ZM27.48 9.69L32.80 9.69L32.80 9.39L32.80 9.39Q32.80 8.46 32.54 7.77L32.54 7.77L32.54 7.77Q32.27 7.08 31.82 6.64L31.82 6.64L31.82 6.64Q31.36 6.19 30.76 5.96L30.76 5.96L30.76 5.96Q30.16 5.74 29.48 5.74L29.48 5.74L29.48 5.74Q28.77 5.74 28.17 5.99L28.17 5.99L28.17 5.99Q27.57 6.23 27.12 6.70L27.12 6.70L27.12 6.70Q26.67 7.17 26.42 7.83L26.42 7.83L26.42 7.83Q26.17 8.50 26.17 9.34L26.17 9.34L26.17 9.34Q26.17 10.04 26.38 10.70L26.38 10.70L26.38 10.70Q26.60 11.37 27.04 11.89L27.04 11.89L27.04 11.89Q27.48 12.42 28.16 12.73L28.16 12.73L28.16 12.73Q28.84 13.05 29.76 13.05L29.76 13.05L29.76 13.05Q30.66 13.05 31.42 12.73L31.42 12.73L31.42 12.73Q32.17 12.42 32.73 11.83L32.73 11.83L32.28 11.38L32.28 11.38Q31.99 11.63 31.73 11.84L31.73 11.84L31.73 11.84Q31.47 12.05 31.21 12.19L31.21 12.19L31.21 12.19Q30.94 12.33 30.65 12.41L30.65 12.41L30.65 12.41Q30.37 12.49 30.02 12.49L30.02 12.49L30.02 12.49Q29.62 12.49 29.18 12.37L29.18 12.37L29.18 12.37Q28.74 12.25 28.36 11.94L28.36 11.94L28.36 11.94Q27.99 11.63 27.73 11.09L27.73 11.09L27.73 11.09Q27.48 10.54 27.48 9.69L27.48 9.69ZM31.58 9.13L27.48 9.13L27.48 9.13Q27.48 8.57 27.60 8.04L27.60 8.04L27.60 8.04Q27.72 7.52 27.96 7.11L27.96 7.11L27.96 7.11Q28.21 6.71 28.59 6.46L28.59 6.46L28.59 6.46Q28.97 6.22 29.48 6.22L29.48 6.22L29.48 6.22Q30.48 6.22 31.03 6.99L31.03 6.99L31.03 6.99Q31.58 7.77 31.58 9.13L31.58 9.13ZM35.81 5.88L34.62 5.88L34.62 12.88L35.81 12.88L35.81 8.65L35.81 8.65Q35.81 8.08 35.95 7.68L35.95 7.68L35.95 7.68Q36.08 7.28 36.29 7.03L36.29 7.03L36.29 7.03Q36.50 6.78 36.75 6.66L36.75 6.66L36.75 6.66Q37.00 6.55 37.24 6.55L37.24 6.55L37.24 6.55Q37.56 6.55 37.84 6.76L37.84 6.76L37.84 6.76Q38.11 6.97 38.23 7.15L38.23 7.15L38.71 6.29L38.71 6.29Q38.58 6.12 38.41 6.01L38.41 6.01L38.41 6.01Q38.23 5.89 38.06 5.83L38.06 5.83L38.06 5.83Q37.88 5.77 37.74 5.75L37.74 5.75L37.74 5.75Q37.59 5.73 37.52 5.73L37.52 5.73L37.52 5.73Q36.93 5.73 36.54 6.05L36.54 6.05L36.54 6.05Q36.15 6.37 35.90 7.00L35.90 7.00L35.81 7.00L35.81 5.88ZM40.49 6.44L39.27 6.44L39.27 5.88L40.49 5.88L40.49 3.72L41.68 3.72L41.68 5.88L43.37 5.88L43.37 6.44L41.68 6.44L41.68 11.09L41.68 11.09Q41.68 11.26 41.69 11.47L41.69 11.47L41.69 11.47Q41.71 11.69 41.78 11.88L41.78 11.88L41.78 11.88Q41.85 12.07 41.99 12.19L41.99 12.19L41.99 12.19Q42.14 12.32 42.41 12.32L42.41 12.32L42.41 12.32Q42.74 12.32 42.97 12.07L42.97 12.07L42.97 12.07Q43.19 11.82 43.33 11.52L43.33 11.52L43.99 12.19L43.99 12.19Q43.30 12.88 42.43 12.88L42.43 12.88L42.43 12.88Q42.07 12.88 41.72 12.75L41.72 12.75L41.72 12.75Q41.37 12.63 41.10 12.37L41.10 12.37L41.10 12.37Q40.82 12.11 40.66 11.70L40.66 11.70L40.66 11.70Q40.49 11.30 40.49 10.75L40.49 10.75L40.49 6.44ZM50.68 3.08L50.68 12.88L51.95 12.88L51.95 9.44L53.54 7.74L57.26 12.88L58.72 12.88L54.35 6.87L57.90 3.08L57.20 3.08L51.95 8.60L51.95 3.08L50.68 3.08ZM62.83 5.73L62.83 5.73L62.83 5.73Q63.85 5.73 64.41 6.01L64.41 6.01L64.41 6.01Q64.97 6.30 65.23 6.76L65.23 6.76L65.23 6.76Q65.49 7.22 65.53 7.83L65.53 7.83L65.53 7.83Q65.58 8.43 65.58 9.06L65.58 9.06L65.58 12.88L64.44 12.88L64.44 12.19L64.44 12.19Q64.04 12.59 63.41 12.82L63.41 12.82L63.41 12.82Q62.78 13.05 62.15 13.05L62.15 13.05L62.15 13.05Q61.54 13.05 61.08 12.84L61.08 12.84L61.08 12.84Q60.62 12.63 60.31 12.29L60.31 12.29L60.31 12.29Q60.00 11.96 59.85 11.54L59.85 11.54L59.85 11.54Q59.70 11.12 59.70 10.68L59.70 10.68L59.70 10.68Q59.70 10.23 59.86 9.79L59.86 9.79L59.86 9.79Q60.03 9.34 60.37 8.98L60.37 8.98L60.37 8.98Q60.70 8.62 61.19 8.40L61.19 8.40L61.19 8.40Q61.68 8.18 62.31 8.18L62.31 8.18L62.31 8.18Q62.94 8.18 63.51 8.42L63.51 8.42L63.51 8.42Q64.08 8.67 64.44 9.11L64.44 9.11L64.44 8.51L64.44 8.51Q64.44 7.36 64.10 6.80L64.10 6.80L64.10 6.80Q63.76 6.24 62.85 6.24L62.85 6.24L62.85 6.24Q62.45 6.24 62.16 6.34L62.16 6.34L62.16 6.34Q61.87 6.44 61.64 6.62L61.64 6.62L61.64 6.62Q61.40 6.79 61.21 7.05L61.21 7.05L61.21 7.05Q61.01 7.31 60.82 7.63L60.82 7.63L60.09 6.90L60.09 6.90Q60.28 6.69 60.50 6.48L60.50 6.48L60.50 6.48Q60.72 6.27 61.03 6.10L61.03 6.10L61.03 6.10Q61.35 5.94 61.78 5.83L61.78 5.83L61.78 5.83Q62.22 5.73 62.83 5.73ZM64.44 11.19L64.44 10.11L64.44 10.11Q64.37 9.94 64.24 9.72L64.24 9.72L64.24 9.72Q64.11 9.49 63.90 9.28L63.90 9.28L63.90 9.28Q63.69 9.07 63.39 8.93L63.39 8.93L63.39 8.93Q63.10 8.78 62.69 8.78L62.69 8.78L62.69 8.78Q62.29 8.78 61.95 8.94L61.95 8.94L61.95 8.94Q61.61 9.10 61.38 9.36L61.38 9.36L61.38 9.36Q61.15 9.62 61.03 9.97L61.03 9.97L61.03 9.97Q60.90 10.32 60.90 10.70L60.90 10.70L60.90 10.70Q60.90 11.14 61.06 11.47L61.06 11.47L61.06 11.47Q61.22 11.80 61.47 12.03L61.47 12.03L61.47 12.03Q61.73 12.26 62.03 12.38L62.03 12.38L62.03 12.38Q62.34 12.49 62.62 12.49L62.62 12.49L62.62 12.49Q62.89 12.49 63.16 12.39L63.16 12.39L63.16 12.39Q63.43 12.29 63.68 12.12L63.68 12.12L63.68 12.12Q63.92 11.94 64.12 11.70L64.12 11.70L64.12 11.70Q64.32 11.47 64.44 11.19L64.44 11.19ZM70.59 11.24L70.53 11.24L68.11 5.88L66.84 5.88L69.97 12.80L69.23 14.62L69.23 14.62Q69.10 14.94 68.90 15.13L68.90 15.13L68.90 15.13Q68.70 15.33 68.43 15.33L68.43 15.33L68.43 15.33Q68.18 15.33 67.95 15.18L67.95 15.18L67.95 15.18Q67.72 15.04 67.59 14.76L67.59 14.76L66.98 15.92L66.98 15.92Q67.24 16.16 67.56 16.27L67.56 16.27L67.56 16.27Q67.89 16.38 68.17 16.38L68.17 16.38L68.17 16.38Q68.56 16.38 68.85 16.18L68.85 16.18L68.85 16.18Q69.15 15.99 69.37 15.67L69.37 15.67L69.37 15.67Q69.59 15.36 69.76 14.97L69.76 14.97L69.76 14.97Q69.93 14.59 70.08 14.21L70.08 14.21L73.47 5.88L72.79 5.88L70.59 11.24ZM77.45 5.73L77.45 5.73L77.45 5.73Q78.47 5.73 79.03 6.01L79.03 6.01L79.03 6.01Q79.59 6.30 79.85 6.76L79.85 6.76L79.85 6.76Q80.11 7.22 80.15 7.83L80.15 7.83L80.15 7.83Q80.19 8.43 80.19 9.06L80.19 9.06L80.19 12.88L79.06 12.88L79.06 12.19L79.06 12.19Q78.65 12.59 78.02 12.82L78.02 12.82L78.02 12.82Q77.39 13.05 76.76 13.05L76.76 13.05L76.76 13.05Q76.16 13.05 75.70 12.84L75.70 12.84L75.70 12.84Q75.24 12.63 74.93 12.29L74.93 12.29L74.93 12.29Q74.62 11.96 74.47 11.54L74.47 11.54L74.47 11.54Q74.31 11.12 74.31 10.68L74.31 10.68L74.31 10.68Q74.31 10.23 74.48 9.79L74.48 9.79L74.48 9.79Q74.65 9.34 74.98 8.98L74.98 8.98L74.98 8.98Q75.32 8.62 75.81 8.40L75.81 8.40L75.81 8.40Q76.30 8.18 76.93 8.18L76.93 8.18L76.93 8.18Q77.56 8.18 78.13 8.42L78.13 8.42L78.13 8.42Q78.69 8.67 79.06 9.11L79.06 9.11L79.06 8.51L79.06 8.51Q79.06 7.36 78.71 6.80L78.71 6.80L78.71 6.80Q78.37 6.24 77.46 6.24L77.46 6.24L77.46 6.24Q77.07 6.24 76.78 6.34L76.78 6.34L76.78 6.34Q76.48 6.44 76.25 6.62L76.25 6.62L76.25 6.62Q76.02 6.79 75.82 7.05L75.82 7.05L75.82 7.05Q75.63 7.31 75.43 7.63L75.43 7.63L74.70 6.90L74.70 6.90Q74.90 6.69 75.12 6.48L75.12 6.48L75.12 6.48Q75.33 6.27 75.65 6.10L75.65 6.10L75.65 6.10Q75.96 5.94 76.40 5.83L76.40 5.83L76.40 5.83Q76.83 5.73 77.45 5.73ZM79.06 11.19L79.06 10.11L79.06 10.11Q78.99 9.94 78.85 9.72L78.85 9.72L78.85 9.72Q78.72 9.49 78.51 9.28L78.51 9.28L78.51 9.28Q78.30 9.07 78.01 8.93L78.01 8.93L78.01 8.93Q77.71 8.78 77.31 8.78L77.31 8.78L77.31 8.78Q76.90 8.78 76.57 8.94L76.57 8.94L76.57 8.94Q76.23 9.10 76.00 9.36L76.00 9.36L76.00 9.36Q75.77 9.62 75.64 9.97L75.64 9.97L75.64 9.97Q75.52 10.32 75.52 10.70L75.52 10.70L75.52 10.70Q75.52 11.14 75.68 11.47L75.68 11.47L75.68 11.47Q75.84 11.80 76.09 12.03L76.09 12.03L76.09 12.03Q76.34 12.26 76.65 12.38L76.65 12.38L76.65 12.38Q76.96 12.49 77.24 12.49L77.24 12.49L77.24 12.49Q77.50 12.49 77.78 12.39L77.78 12.39L77.78 12.39Q78.05 12.29 78.30 12.12L78.30 12.12L78.30 12.12Q78.54 11.94 78.74 11.70L78.74 11.70L78.74 11.70Q78.93 11.47 79.06 11.19L79.06 11.19ZM83.62 9.35L83.62 3.08L82.43 3.08L82.43 12.88L83.62 12.88L83.62 10.25L84.43 9.42L87.25 12.88L88.82 12.88L85.30 8.57L87.98 5.88L87.07 5.88L83.62 9.35ZM96.01 10.00L100.84 10.00L102.19 12.88L103.54 12.88L98.98 3.08L98.28 3.08L94.14 12.88L94.78 12.88L96.01 10.00ZM98.35 4.65L100.55 9.37L96.28 9.37L98.29 4.65L98.35 4.65ZM111.30 12.88L111.30 3.08L110.11 3.08L110.11 7.03L110.05 7.03L110.05 7.03Q109.91 6.66 109.68 6.42L109.68 6.42L109.68 6.42Q109.45 6.17 109.16 6.02L109.16 6.02L109.16 6.02Q108.86 5.87 108.54 5.80L108.54 5.80L108.54 5.80Q108.21 5.73 107.87 5.73L107.87 5.73L107.87 5.73Q107.17 5.73 106.58 5.99L106.58 5.99L106.58 5.99Q105.99 6.24 105.57 6.72L105.57 6.72L105.57 6.72Q105.14 7.20 104.90 7.87L104.90 7.87L104.90 7.87Q104.66 8.54 104.66 9.37L104.66 9.37L104.66 9.37Q104.66 10.21 104.90 10.89L104.90 10.89L104.90 10.89Q105.14 11.56 105.57 12.05L105.57 12.05L105.57 12.05Q105.99 12.53 106.58 12.79L106.58 12.79L106.58 12.79Q107.17 13.05 107.87 13.05L107.87 13.05L107.87 13.05Q109.52 13.05 110.05 11.75L110.05 11.75L110.11 11.75L110.11 12.88L111.30 12.88ZM110.11 8.86L110.11 10.08L110.11 10.08Q110.11 10.54 109.96 10.96L109.96 10.96L109.96 10.96Q109.80 11.37 109.54 11.67L109.54 11.67L109.54 11.67Q109.28 11.97 108.93 12.15L108.93 12.15L108.93 12.15Q108.57 12.32 108.16 12.32L108.16 12.32L108.16 12.32Q107.72 12.32 107.32 12.16L107.32 12.16L107.32 12.16Q106.93 12.00 106.64 11.65L106.64 11.65L106.64 11.65Q106.34 11.30 106.17 10.74L106.17 10.74L106.17 10.74Q105.99 10.18 105.99 9.39L105.99 9.39L105.99 9.39Q105.99 8.60 106.17 8.04L106.17 8.04L106.17 8.04Q106.34 7.48 106.65 7.12L106.65 7.12L106.65 7.12Q106.95 6.76 107.34 6.60L107.34 6.60L107.34 6.60Q107.73 6.44 108.16 6.44L108.16 6.44L108.16 6.44Q108.56 6.44 108.91 6.60L108.91 6.60L108.91 6.60Q109.26 6.76 109.52 7.08L109.52 7.08L109.52 7.08Q109.79 7.39 109.95 7.84L109.95 7.84L109.95 7.84Q110.11 8.29 110.11 8.86L110.11 8.86ZM113.93 5.88L112.70 5.88L115.61 12.88L116.45 12.88L119.28 5.88L118.62 5.88L116.35 11.49L116.27 11.49L113.93 5.88ZM121.58 9.69L126.90 9.69L126.90 9.39L126.90 9.39Q126.90 8.46 126.63 7.77L126.63 7.77L126.63 7.77Q126.36 7.08 125.91 6.64L125.91 6.64L125.91 6.64Q125.45 6.19 124.85 5.96L124.85 5.96L124.85 5.96Q124.25 5.74 123.58 5.74L123.58 5.74L123.58 5.74Q122.86 5.74 122.26 5.99L122.26 5.99L122.26 5.99Q121.66 6.23 121.21 6.70L121.21 6.70L121.21 6.70Q120.76 7.17 120.51 7.83L120.51 7.83L120.51 7.83Q120.26 8.50 120.26 9.34L120.26 9.34L120.26 9.34Q120.26 10.04 120.48 10.70L120.48 10.70L120.48 10.70Q120.69 11.37 121.14 11.89L121.14 11.89L121.14 11.89Q121.58 12.42 122.26 12.73L122.26 12.73L122.26 12.73Q122.93 13.05 123.86 13.05L123.86 13.05L123.86 13.05Q124.75 13.05 125.51 12.73L125.51 12.73L125.51 12.73Q126.27 12.42 126.83 11.83L126.83 11.83L126.38 11.38L126.38 11.38Q126.08 11.63 125.83 11.84L125.83 11.84L125.83 11.84Q125.57 12.05 125.30 12.19L125.30 12.19L125.30 12.19Q125.03 12.33 124.75 12.41L124.75 12.41L124.75 12.41Q124.46 12.49 124.11 12.49L124.11 12.49L124.11 12.49Q123.72 12.49 123.28 12.37L123.28 12.37L123.28 12.37Q122.84 12.25 122.46 11.94L122.46 11.94L122.46 11.94Q122.08 11.63 121.83 11.09L121.83 11.09L121.83 11.09Q121.58 10.54 121.58 9.69L121.58 9.69ZM125.68 9.13L121.58 9.13L121.58 9.13Q121.58 8.57 121.70 8.04L121.70 8.04L121.70 8.04Q121.81 7.52 122.06 7.11L122.06 7.11L122.06 7.11Q122.30 6.71 122.68 6.46L122.68 6.46L122.68 6.46Q123.06 6.22 123.58 6.22L123.58 6.22L123.58 6.22Q124.57 6.22 125.13 6.99L125.13 6.99L125.13 6.99Q125.68 7.77 125.68 9.13L125.68 9.13ZM133.38 12.88L134.57 12.88L134.57 8.34L134.57 8.34Q134.57 8.09 134.53 7.65L134.53 7.65L134.53 7.65Q134.48 7.21 134.25 6.78L134.25 6.78L134.25 6.78Q134.02 6.36 133.52 6.04L133.52 6.04L133.52 6.04Q133.01 5.73 132.09 5.73L132.09 5.73L132.09 5.73Q131.68 5.71 131.18 5.89L131.18 5.89L131.18 5.89Q130.68 6.06 130.19 6.55L130.19 6.55L129.96 6.78L129.91 6.78L129.91 5.88L128.72 5.88L128.72 12.88L129.91 12.88L129.91 8.55L129.91 8.55Q129.91 8.01 130.06 7.62L130.06 7.62L130.06 7.62Q130.21 7.22 130.48 6.96L130.48 6.96L130.48 6.96Q130.75 6.69 131.09 6.57L131.09 6.57L131.09 6.57Q131.43 6.44 131.80 6.44L131.80 6.44L131.80 6.44Q132.38 6.44 132.71 6.67L132.71 6.67L132.71 6.67Q133.03 6.90 133.18 7.21L133.18 7.21L133.18 7.21Q133.32 7.52 133.35 7.83L133.35 7.83L133.35 7.83Q133.38 8.13 133.38 8.27L133.38 8.27L133.38 12.88ZM137.37 6.44L136.15 6.44L136.15 5.88L137.37 5.88L137.37 3.72L138.56 3.72L138.56 5.88L140.25 5.88L140.25 6.44L138.56 6.44L138.56 11.09L138.56 11.09Q138.56 11.26 138.57 11.47L138.57 11.47L138.57 11.47Q138.59 11.69 138.66 11.88L138.66 11.88L138.66 11.88Q138.73 12.07 138.87 12.19L138.87 12.19L138.87 12.19Q139.02 12.32 139.29 12.32L139.29 12.32L139.29 12.32Q139.62 12.32 139.85 12.07L139.85 12.07L139.85 12.07Q140.07 11.82 140.21 11.52L140.21 11.52L140.87 12.19L140.87 12.19Q140.18 12.88 139.31 12.88L139.31 12.88L139.31 12.88Q138.95 12.88 138.60 12.75L138.60 12.75L138.60 12.75Q138.25 12.63 137.98 12.37L137.98 12.37L137.98 12.37Q137.70 12.11 137.54 11.70L137.54 11.70L137.54 11.70Q137.37 11.30 137.37 10.75L137.37 10.75L137.37 6.44ZM143.29 5.88L142.10 5.88L142.10 10.43L142.10 10.43Q142.10 10.68 142.15 11.12L142.15 11.12L142.15 11.12Q142.20 11.56 142.44 11.99L142.44 11.99L142.44 11.99Q142.67 12.42 143.19 12.73L143.19 12.73L143.19 12.73Q143.70 13.05 144.62 13.05L144.62 13.05L144.62 13.05Q145.03 13.06 145.51 12.89L145.51 12.89L145.51 12.89Q145.99 12.71 146.48 12.22L146.48 12.22L146.71 12.00L146.76 12.00L146.76 12.88L147.95 12.88L147.95 5.88L146.76 5.88L146.76 10.22L146.76 10.22Q146.76 10.77 146.61 11.16L146.61 11.16L146.61 11.16Q146.45 11.55 146.20 11.81L146.20 11.81L146.20 11.81Q145.95 12.07 145.61 12.19L145.61 12.19L145.61 12.19Q145.28 12.32 144.91 12.32L144.91 12.32L144.91 12.32Q144.33 12.32 144.00 12.09L144.00 12.09L144.00 12.09Q143.67 11.86 143.51 11.55L143.51 11.55L143.51 11.55Q143.35 11.24 143.32 10.94L143.32 10.94L143.32 10.94Q143.29 10.64 143.29 10.50L143.29 10.50L143.29 5.88ZM151.42 5.88L150.23 5.88L150.23 12.88L151.42 12.88L151.42 8.65L151.42 8.65Q151.42 8.08 151.56 7.68L151.56 7.68L151.56 7.68Q151.69 7.28 151.90 7.03L151.90 7.03L151.90 7.03Q152.11 6.78 152.36 6.66L152.36 6.66L152.36 6.66Q152.61 6.55 152.85 6.55L152.85 6.55L152.85 6.55Q153.17 6.55 153.45 6.76L153.45 6.76L153.45 6.76Q153.72 6.97 153.85 7.15L153.85 7.15L154.32 6.29L154.32 6.29Q154.20 6.12 154.02 6.01L154.02 6.01L154.02 6.01Q153.85 5.89 153.67 5.83L153.67 5.83L153.67 5.83Q153.50 5.77 153.35 5.75L153.35 5.75L153.35 5.75Q153.20 5.73 153.13 5.73L153.13 5.73L153.13 5.73Q152.54 5.73 152.15 6.05L152.15 6.05L152.15 6.05Q151.76 6.37 151.51 7.00L151.51 7.00L151.42 7.00L151.42 5.88ZM156.48 9.69L161.80 9.69L161.80 9.39L161.80 9.39Q161.80 8.46 161.53 7.77L161.53 7.77L161.53 7.77Q161.27 7.08 160.81 6.64L160.81 6.64L160.81 6.64Q160.36 6.19 159.75 5.96L159.75 5.96L159.75 5.96Q159.15 5.74 158.48 5.74L158.48 5.74L158.48 5.74Q157.77 5.74 157.16 5.99L157.16 5.99L157.16 5.99Q156.56 6.23 156.11 6.70L156.11 6.70L156.11 6.70Q155.67 7.17 155.41 7.83L155.41 7.83L155.41 7.83Q155.16 8.50 155.16 9.34L155.16 9.34L155.16 9.34Q155.16 10.04 155.38 10.70L155.38 10.70L155.38 10.70Q155.60 11.37 156.04 11.89L156.04 11.89L156.04 11.89Q156.48 12.42 157.16 12.73L157.16 12.73L157.16 12.73Q157.84 13.05 158.76 13.05L158.76 13.05L158.76 13.05Q159.66 13.05 160.41 12.73L160.41 12.73L160.41 12.73Q161.17 12.42 161.73 11.83L161.73 11.83L161.28 11.38L161.28 11.38Q160.99 11.63 160.73 11.84L160.73 11.84L160.73 11.84Q160.47 12.05 160.20 12.19L160.20 12.19L160.20 12.19Q159.94 12.33 159.65 12.41L159.65 12.41L159.65 12.41Q159.36 12.49 159.01 12.49L159.01 12.49L159.01 12.49Q158.62 12.49 158.18 12.37L158.18 12.37L158.18 12.37Q157.74 12.25 157.36 11.94L157.36 11.94L157.36 11.94Q156.98 11.63 156.73 11.09L156.73 11.09L156.73 11.09Q156.48 10.54 156.48 9.69L156.48 9.69ZM160.58 9.13L156.48 9.13L156.48 9.13Q156.48 8.57 156.60 8.04L156.60 8.04L156.60 8.04Q156.72 7.52 156.96 7.11L156.96 7.11L156.96 7.11Q157.21 6.71 157.58 6.46L157.58 6.46L157.58 6.46Q157.96 6.22 158.48 6.22L158.48 6.22L158.48 6.22Q159.47 6.22 160.03 6.99L160.03 6.99L160.03 6.99Q160.58 7.77 160.58 9.13L160.58 9.13ZM167.29 7.48L168.08 7.48L168.08 7.48Q168.08 7.10 167.89 6.78L167.89 6.78L167.89 6.78Q167.69 6.45 167.35 6.22L167.35 6.22L167.35 6.22Q167.01 5.99 166.55 5.86L166.55 5.86L166.55 5.86Q166.10 5.73 165.58 5.73L165.58 5.73L165.58 5.73Q165.09 5.73 164.66 5.85L164.66 5.85L164.66 5.85Q164.23 5.98 163.92 6.23L163.92 6.23L163.92 6.23Q163.60 6.48 163.42 6.85L163.42 6.85L163.42 6.85Q163.24 7.22 163.24 7.71L163.24 7.71L163.24 7.71Q163.24 8.39 163.55 8.78L163.55 8.78L163.55 8.78Q163.86 9.17 164.32 9.41L164.32 9.41L164.32 9.41Q164.78 9.65 165.32 9.79L165.32 9.79L165.32 9.79Q165.86 9.94 166.32 10.12L166.32 10.12L166.32 10.12Q166.78 10.29 167.09 10.56L167.09 10.56L167.09 10.56Q167.40 10.82 167.40 11.28L167.40 11.28L167.40 11.28Q167.40 11.48 167.34 11.69L167.34 11.69L167.34 11.69Q167.27 11.90 167.10 12.08L167.10 12.08L167.10 12.08Q166.94 12.25 166.64 12.37L166.64 12.37L166.64 12.37Q166.35 12.49 165.90 12.49L165.90 12.49L165.90 12.49Q165.34 12.49 164.96 12.31L164.96 12.31L164.96 12.31Q164.57 12.14 164.33 11.89L164.33 11.89L164.33 11.89Q164.08 11.65 163.98 11.40L163.98 11.40L163.98 11.40Q163.87 11.14 163.87 10.98L163.87 10.98L162.96 10.98L162.96 10.98Q162.96 11.37 163.14 11.74L163.14 11.74L163.14 11.74Q163.32 12.11 163.70 12.40L163.70 12.40L163.70 12.40Q164.07 12.70 164.61 12.87L164.61 12.87L164.61 12.87Q165.14 13.05 165.86 13.05L165.86 13.05L165.86 13.05Q167.15 13.05 167.80 12.48L167.80 12.48L167.80 12.48Q168.45 11.91 168.45 10.99L168.45 10.99L168.45 10.99Q168.45 10.32 168.13 9.91L168.13 9.91L168.13 9.91Q167.82 9.51 167.34 9.26L167.34 9.26L167.34 9.26Q166.87 9.02 166.31 8.86L166.31 8.86L166.31 8.86Q165.76 8.71 165.28 8.54L165.28 8.54L165.28 8.54Q164.81 8.37 164.49 8.13L164.49 8.13L164.49 8.13Q164.18 7.90 164.18 7.46L164.18 7.46L164.18 7.46Q164.18 7.28 164.25 7.08L164.25 7.08L164.25 7.08Q164.32 6.87 164.49 6.70L164.49 6.70L164.49 6.70Q164.65 6.52 164.93 6.41L164.93 6.41L164.93 6.41Q165.21 6.29 165.63 6.29L165.63 6.29L165.63 6.29Q166.05 6.29 166.36 6.41L166.36 6.41L166.36 6.41Q166.67 6.52 166.88 6.70L166.88 6.70L166.88 6.70Q167.09 6.87 167.19 7.08L167.19 7.08L167.19 7.08Q167.29 7.29 167.29 7.48L167.29 7.48Z"></path></g><!----><!----></svg>