<svg data-v-423bf9ae="" xmlns="http://www.w3.org/2000/svg" viewBox="0 0 370 90" class="iconLeft"><!----><!----><!----><g data-v-423bf9ae="" id="4ce8ed2e-1700-4637-9334-dc32c818ea3b" fill="#28282D" transform="matrix(6.122448921203613,0,0,6.122448921203613,181.51417541503906,-3.857142448425293)"><path d="M5.21 12.88L1.82 12.88L1.82 3.08L5.04 3.08L5.04 3.08Q6.20 3.08 7.17 3.45L7.17 3.45L7.17 3.45Q8.13 3.82 8.83 4.47L8.83 4.47L8.83 4.47Q9.52 5.12 9.90 6.02L9.90 6.02L9.90 6.02Q10.29 6.92 10.29 7.95L10.29 7.95L10.29 7.95Q10.29 9.03 9.89 9.93L9.89 9.93L9.89 9.93Q9.49 10.84 8.80 11.49L8.80 11.49L8.80 11.49Q8.11 12.15 7.18 12.52L7.18 12.52L7.18 12.52Q6.26 12.88 5.21 12.88L5.21 12.88ZM3.09 3.70L3.09 12.26L4.63 12.26L4.63 12.26Q5.78 12.26 6.59 11.88L6.59 11.88L6.59 11.88Q7.39 11.49 7.91 10.88L7.91 10.88L7.91 10.88Q8.43 10.26 8.67 9.50L8.67 9.50L8.67 9.50Q8.90 8.74 8.90 7.98L8.90 7.98L8.90 7.98Q8.90 7.14 8.62 6.36L8.62 6.36L8.62 6.36Q8.34 5.59 7.81 4.99L7.81 4.99L7.81 4.99Q7.27 4.40 6.47 4.05L6.47 4.05L6.47 4.05Q5.67 3.70 4.63 3.70L4.63 3.70L3.09 3.70ZM12.39 3.08L12.39 12.88L13.66 12.88L13.66 9.44L15.25 7.74L18.97 12.88L20.43 12.88L16.06 6.87L19.61 3.08L18.91 3.08L13.66 8.60L13.66 3.08L12.39 3.08ZM23.14 10.00L27.97 10.00L29.32 12.88L30.67 12.88L26.11 3.08L25.41 3.08L21.27 12.88L21.91 12.88L23.14 10.00ZM25.48 4.65L27.68 9.37L23.41 9.37L25.42 4.65L25.48 4.65Z"></path></g><defs data-v-423bf9ae=""><linearGradient data-v-423bf9ae="" gradientTransform="rotate(25)" id="0aad0084-59be-4fa9-8451-76acf6f179df" x1="0%" y1="0%" x2="100%" y2="0%"><stop data-v-423bf9ae="" offset="0%" style="stop-color: rgb(87, 72, 81); stop-opacity: 1;"></stop><stop data-v-423bf9ae="" offset="100%" style="stop-color: rgb(149, 168, 177); stop-opacity: 1;"></stop></linearGradient></defs><g data-v-423bf9ae="" id="7722201f-f685-43fc-8603-ad657beef03a" transform="matrix(1.9182969331741333,0,0,1.9182969331741333,-8.919654846191406,-45.0384635925293)" stroke="none" fill="url(#0aad0084-59be-4fa9-8451-76acf6f179df)"><path d="M94.688 44.778c-1.051.461-12.644 2.772-15.669 3.15-3.024.378-13.969 1.114-18.505 1.134-4.538.021-11.868-.189-15.438-.525-.568-.053-1.365-.124-2.303-.205l1.323-1.323.408.172a.964.964 0 0 0 1.265-.504.952.952 0 0 0-.252-1.088l2.371-2.371h.245a.962.962 0 0 0 .962-.962c0-.072-.026-.136-.041-.204l8.479-8.479c.799-.33 2.353-1.061 3.571-1.611 1.685-.763 3.579-2.19 4.445-3.623.867-1.433.296-2.768-.178-3.45-.474-.682-1.23-1.107-1.992-.774-.764.331-3.487 2.649-4.883 5.251-1.019 1.896-1.429 3.225-1.577 3.81l-8.283 8.282a.935.935 0 0 0-.504-.163h-6.497a3.442 3.442 0 0 0-1.138-1.316 3.171 3.171 0 0 0 1.264-2.526 3.189 3.189 0 0 0-6.376 0c0 1.034.5 1.944 1.264 2.526a3.432 3.432 0 0 0-1.497 2.679c-.524-.35-.929-.462-.929-.462v5.438c-3.238-.25-6.057-.449-6.752-.449-1.577 0-9.484-.201-13.287.468-2.821.497-6.917 1.567-8.991 2.632-.282.146-.193.694-.12.833.073.14 1.843.752 1.975 1.056.63 1.457 2.363 2.245 4.001 2.718 1.638.473 8.16 1.387 12.099 1.543 1.984.08 5.857.138 10.337.177l-5.224 5.224c-.584.149-1.913.56-3.81 1.578-2.602 1.396-4.92 4.119-5.251 4.882-.333.763.092 1.52.774 1.992.683.474 2.017 1.045 3.45.179 1.433-.867 2.86-2.761 3.622-4.445.551-1.22 1.283-2.772 1.611-3.571l5.83-5.83c4.156.032 8.733.048 12.772.048 8.8 0 26.446.021 34.637-2.332 8.191-2.352 10.523-5.587 11.908-7.162 1.388-1.577 1.409-2.04.884-2.397zm-52.676 3.306v-1.953l1.374.579-1.374 1.374zm2.842-2.842l-2.843-1.198v-.825h4.866l-2.023 2.023z"></path></g><!----></svg>