<svg data-v-423bf9ae="" xmlns="http://www.w3.org/2000/svg" viewBox="0 0 176.63265195899785 60" class="font"><!----><!----><!----><g data-v-423bf9ae="" id="75bc248a-345e-47ab-804e-0d9af88e0039" fill="black" transform="matrix(6.122448921203613,0,0,6.122448921203613,-11.142857551574707,-18.85714340209961)"><path d="M5.21 12.88L1.82 12.88L1.82 3.08L5.04 3.08L5.04 3.08Q6.20 3.08 7.17 3.45L7.17 3.45L7.17 3.45Q8.13 3.82 8.83 4.47L8.83 4.47L8.83 4.47Q9.52 5.12 9.90 6.02L9.90 6.02L9.90 6.02Q10.29 6.92 10.29 7.95L10.29 7.95L10.29 7.95Q10.29 9.03 9.89 9.93L9.89 9.93L9.89 9.93Q9.49 10.84 8.80 11.49L8.80 11.49L8.80 11.49Q8.11 12.15 7.18 12.52L7.18 12.52L7.18 12.52Q6.26 12.88 5.21 12.88L5.21 12.88ZM3.09 3.70L3.09 12.26L4.63 12.26L4.63 12.26Q5.78 12.26 6.59 11.88L6.59 11.88L6.59 11.88Q7.39 11.49 7.91 10.88L7.91 10.88L7.91 10.88Q8.43 10.26 8.67 9.50L8.67 9.50L8.67 9.50Q8.90 8.74 8.90 7.98L8.90 7.98L8.90 7.98Q8.90 7.14 8.62 6.36L8.62 6.36L8.62 6.36Q8.34 5.59 7.81 4.99L7.81 4.99L7.81 4.99Q7.27 4.40 6.47 4.05L6.47 4.05L6.47 4.05Q5.67 3.70 4.63 3.70L4.63 3.70L3.09 3.70ZM12.39 3.08L12.39 12.88L13.66 12.88L13.66 9.44L15.25 7.74L18.97 12.88L20.43 12.88L16.06 6.87L19.61 3.08L18.91 3.08L13.66 8.60L13.66 3.08L12.39 3.08ZM23.14 10.00L27.97 10.00L29.32 12.88L30.67 12.88L26.11 3.08L25.41 3.08L21.27 12.88L21.91 12.88L23.14 10.00ZM25.48 4.65L27.68 9.37L23.41 9.37L25.42 4.65L25.48 4.65Z"></path></g><!----><!----></svg>